<mxfile host="app.diagrams.net" modified="2021-05-10T06:40:04.015Z" agent="5.0 (Windows NT 10.0; Win64; x64) AppleWebKit/537.36 (KHTML, like Gecko) Chrome/72.0.3626.119 Safari/537.36" etag="xIEjfiFgL-eMGGGdbz4l" version="14.6.10" type="github">
  <diagram id="v6rdkGnPCHms238d3D1q" name="第 1 页">
    <mxGraphModel dx="1422" dy="762" grid="1" gridSize="10" guides="1" tooltips="1" connect="1" arrows="1" fold="1" page="1" pageScale="1" pageWidth="827" pageHeight="1169" math="0" shadow="0">
      <root>
        <mxCell id="0" />
        <mxCell id="1" parent="0" />
        <mxCell id="M0JnAbFCaV-SmDv4sgW1-3" style="edgeStyle=orthogonalEdgeStyle;rounded=0;orthogonalLoop=1;jettySize=auto;html=1;" edge="1" parent="1" source="M0JnAbFCaV-SmDv4sgW1-1" target="M0JnAbFCaV-SmDv4sgW1-2">
          <mxGeometry relative="1" as="geometry" />
        </mxCell>
        <mxCell id="M0JnAbFCaV-SmDv4sgW1-1" value="10.12.233.12&lt;br&gt;（基金生产服务器）" style="rounded=1;whiteSpace=wrap;html=1;" vertex="1" parent="1">
          <mxGeometry x="320" y="140" width="120" height="60" as="geometry" />
        </mxCell>
        <mxCell id="M0JnAbFCaV-SmDv4sgW1-2" value="58.34.1.99:443&lt;br&gt;域名：prod.yunyesoft.com" style="rounded=1;whiteSpace=wrap;html=1;" vertex="1" parent="1">
          <mxGeometry x="265" y="400" width="230" height="90" as="geometry" />
        </mxCell>
      </root>
    </mxGraphModel>
  </diagram>
</mxfile>
